#!OML:ASF E:\Steps\Project 1\Capture day 1\Session 2\Subject.ASF
:FULLY-SPECIFIED
:DEGREES
818
root 12.7128 16.0459 -15.7564 -77.1419 -85.4886 102.373
lowerback -24.8867 -1.34507 -8.75187
upperback 0.811734 1.15405 -3.30693
thorax 14.929 -0.0576136 1.58533
lowerneck -21.1751 0.796413 -3.49393
upperneck 52.0948 0.657815 -4.37664
head 33.079 -1.95607 -3.08091
rclavicle -6.95746e-015 -9.54166e-015
rhumerus -35.8336 -9.90938 -80.8188
rradius 34.5558
rwrist -3.10497
rhand -6.47786 -54.0838
rfingers 7.12502
rthumb 19.3729 -443.139
lclavicle -6.95746e-015 -9.54166e-015
lhumerus -31.2054 8.16566 76.9336
lradius 22.9344
lwrist -3.74043
lhand -22.9777 -10.3426
lfingers 7.12502
lthumb 3.46461 19.609
rfemur -41.0781 -4.37635 17.6497
rtibia 67.8713
rfoot -10.7546 -10.8976
rtoes -39.1049
lfemur -30.3618 -6.23029 -24.8385
ltibia 12.2554
lfoot -5.51977 -1.67898
ltoes -36.2694
819
root 12.5974 16.0564 -15.7494 -73.3584 -85.6209 98.4141
lowerback -24.8417 -1.46259 -8.70617
upperback 0.855482 0.970084 -3.17779
thorax 14.9709 -0.142841 1.64127
lowerneck -21.107 0.771486 -3.2954
upperneck 52.1483 0.561202 -4.60316
head 33.1866 -1.95158 -3.34193
rclavicle -2.18663e-015 4.6118e-014
rhumerus -36.2156 -10.9264 -80.2195
rradius 34.4784
rwrist -2.8768
rhand -6.09442 -53.92
rfingers 7.12502
rthumb 19.7416 -442.937
lclavicle -2.18663e-015 4.6118e-014
lhumerus -30.611 6.53405 77.7382
lradius 23.5091
lwrist -1.48386
lhand -23.6417 -10.1439
lfingers 7.12502
lthumb 2.82336 19.8171
rfemur -42.1514 -4.08943 17.5901
rtibia 67.6381
rfoot -11.4316 -10.7137
rtoes -39.2161
lfemur -29.6582 -6.72208 -24.6331
ltibia 12.1358
lfoot -5.80827 -1.59147
ltoes -35.4075
820
root 12.4827 16.0631 -15.7417 -69.5764 -85.6581 94.3581
lowerback -24.7032 -1.65354 -8.7342
upperback 0.951258 0.708809 -3.08512
thorax 15.0308 -0.268041 1.66693
lowerneck -21.1522 0.88116 -2.90603
upperneck 52.1378 0.606105 -4.7724
head 33.2484 -1.85627 -3.54771
rclavicle 9.54166e-015 2.62396e-014
rhumerus -36.523 -11.2112 -79.9713
rradius 34.5197
rwrist -3.27152
rhand -5.6902 -53.7295
rfingers 7.12502
rthumb 20.1301 -442.707
lclavicle 9.54166e-015 2.62396e-014
lhumerus -29.8276 6.76929 78.0439
lradius 23.6479
lwrist -1.44493
lhand -24.0066 -10.2265
lfingers 7.12502
lthumb 2.47098 19.7389
rfemur -43.028 -3.77194 17.3898
rtibia 67.1728
rfoot -12.2004 -10.7575
rtoes -38.6877
lfemur -28.8367 -7.49156 -24.4502
ltibia 12.0261
lfoot -6.1569 -1.33086
ltoes -32.2063
821
root 12.3689 16.0698 -15.7337 -65.4796 -85.6611 89.9887
lowerback -24.552 -1.86751 -8.79029
upperback 1.03484 0.415873 -2.94136
thorax 15.0721 -0.411165 1.75708
lowerneck -21.2118 0.995252 -2.51387
upperneck 52.0876 0.697217 -4.97144
head 33.221 -1.74798 -3.74953
rclavicle 1.0138e-014 5.00937e-014
rhumerus -36.8447 -11.2103 -79.6891
rradius 34.6012
rwrist -4.06465
rhand -5.56513 -53.6871
rfingers 7.12502
rthumb 20.2503 -442.652
lclavicle 1.0138e-014 5.00937e-014
lhumerus -29.4023 6.43697 78.2761
lradius 24.2402
lwrist -1.49409
lhand -23.6834 -10.246
lfingers 7.12502
lthumb 2.7831 19.7156
rfemur -43.8015 -3.40034 17.1629
rtibia 66.5417
rfoot -13.1181 -10.8081
rtoes -37.9287
lfemur -28.0502 -7.86559 -24.4742
ltibia 11.9819
lfoot -6.48795 -1.38734
ltoes -32.7091
822
root 12.2553 16.0767 -15.7239 -60.1812 -85.7058 84.4769
lowerback -24.4503 -2.01343 -8.67824
upperback 1.09882 0.166919 -2.78552
thorax 15.1143 -0.52132 1.78293
lowerneck -21.2495 1.06751 -2.12874
upperneck 52.0139 0.754252 -5.1958
head 33.0998 -1.65167 -3.96531
rclavicle -1.98785e-016 7.31528e-014
rhumerus -37.2163 -11.7345 -79.1372
rradius 34.628
rwrist -4.4276
rhand -5.67323 -53.8486
rfingers 7.12502
rthumb 20.1465 -442.824
lclavicle -1.98785e-016 7.31528e-014
lhumerus -28.672 6.96059 78.4085
lradius 24.3594
lwrist -2.75622
lhand -23.2861 -10.4866
lfingers 7.12502
lthumb 3.16685 19.4696
rfemur -44.5515 -3.16971 17.0689
rtibia 65.6946
rfoot -13.646 -11.0138
rtoes -38.8054
lfemur -27.376 -7.6277 -24.6292
ltibia 11.9795
lfoot -6.79907 -1.86145
ltoes -36.9525
823
root 12.1449 16.0825 -15.714 -52.5827 -85.8062 76.7539
lowerback -24.379 -2.12659 -8.39674
upperback 1.13526 -0.0874307 -2.62476
thorax 15.1394 -0.619347 1.71715
lowerneck -21.3315 1.20938 -1.53103
upperneck 51.94 0.820211 -5.42017
head 33.0513 -1.49857 -4.23059
rclavicle -7.7526e-015 3.18055e-014
rhumerus -37.6158 -12.7632 -78.4795
rradius 34.5824
rwrist -4.38899
rhand -6.03638 -54.0276
rfingers 7.12502
rthumb 19.7974 -443.039
lclavicle -7.7526e-015 3.18055e-014
lhumerus -28.2422 5.13102 78.7229
lradius 25.1359
lwrist -1.55279
lhand -23.0371 -10.2879
lfingers 7.12502
lthumb 3.40725 19.6646
rfemur -45.3467 -3.06749 17.1615
rtibia 64.5754
rfoot -13.9594 -11.5035
rtoes -39.766
lfemur -26.9725 -6.35978 -25.0337
ltibia 12.1394
lfoot -7.29569 -2.61577
ltoes -47.4927
824
root 12.0349 16.0868 -15.7038 -46.5369 -85.7349 70.6166
lowerback -24.3134 -2.33583 -8.2912
upperback 1.14216 -0.423553 -2.44769
thorax 15.1417 -0.768417 1.73999
lowerneck -21.2211 1.19376 -1.84548
upperneck 52.1044 0.821241 -5.3814
head 33.4133 -1.57233 -4.19404
rclavicle 8.94531e-015 -1.11319e-014
rhumerus -37.9768 -13.2905 -77.9316
rradius 34.5641
rwrist -4.74314
rhand -6.25633 -54.1492
rfingers 7.12502
rthumb 19.5859 -443.183
lclavicle 8.94531e-015 -1.11319e-014
lhumerus -27.7435 4.88018 79.0243
lradius 25.6113
lwrist -1.3711
lhand -22.9804 -9.95704
lfingers 7.12502
lthumb 3.462 19.9946
rfemur -46.1801 -3.05835 17.0341
rtibia 63.3379
rfoot -14.5731 -11.8018
rtoes -38.2848
lfemur -26.6863 -4.42116 -25.9534
ltibia 12.3112
lfoot -8.64352 -2.48614
ltoes -62.0774
825
root 11.9133 16.0839 -15.6907 -42.088 -85.6081 66.0287
lowerback -24.3928 -2.53298 -8.173
upperback 1.21137 -0.722724 -2.29509
thorax 15.3002 -0.904029 1.73498
lowerneck -21.3483 1.34186 -1.56192
upperneck 52.0516 1.00073 -5.50494
head 33.4836 -1.45535 -4.29877
rclavicle -4.77083e-015 7.15625e-015
rhumerus -38.2816 -13.4313 -77.497
rradius 34.5898
rwrist -5.28592
rhand -6.11027 -54.1162
rfingers 7.12502
rthumb 19.7264 -443.135
lclavicle -4.77083e-015 7.15625e-015
lhumerus -27.1238 4.42474 79.4682
lradius 25.9578
lwrist -1.12356
lhand -23.4749 -9.72227
lfingers 7.12502
lthumb 2.98447 20.2366
rfemur -46.8318 -2.97382 16.744
rtibia 62.0226
rfoot -15.3384 -11.9755
rtoes -35.9988
lfemur -25.7643 -6.6238 -25.0505
ltibia 12.0532
lfoot -7.78334 -2.96918
ltoes -47.8924
826
root 11.7784 16.0723 -15.6714 -36.23 -85.617 60.0175
lowerback -24.6968 -2.61618 -7.74908
upperback 1.33584 -0.925452 -2.1974
thorax 15.6383 -0.972899 1.51994
lowerneck -21.5071 1.47685 -1.02151
upperneck 51.9704 1.04001 -5.64443
head 33.4948 -1.31649 -4.50507
rclavicle -7.95139e-015 -2.3059e-014
rhumerus -38.5821 -13.836 -77.1461
rradius 34.5355
rwrist -5.56978
rhand -6.46235 -54.1447
rfingers 7.12502
rthumb 19.3878 -443.198
lclavicle -7.95139e-015 -2.3059e-014
lhumerus -26.8252 2.81332 79.7202
lradius 26.772
lwrist -0.407937
lhand -24.2713 -9.47837
lfingers 7.12502
lthumb 2.21537 20.4899
rfemur -47.2872 -2.87327 16.7231
rtibia 60.4629
rfoot -15.8586 -12.5376
rtoes -36.735
lfemur -24.7465 -7.7574 -24.5709
ltibia 11.6015
lfoot -7.85402 -2.76257
ltoes -40.4044
827
root 11.672 16.0743 -15.6688 -28.6527 -85.4838 52.2705
lowerback -24.4739 -2.81162 -7.51486
upperback 1.35839 -1.29041 -2.07053
thorax 15.5654 -1.11931 1.40258
lowerneck -21.4677 1.51563 -0.893418
upperneck 52.0141 1.01216 -5.70119
head 33.6064 -1.29908 -4.60671
rclavicle -5.76476e-015 -4.29375e-014
rhumerus -38.8973 -14.2925 -76.8716
rradius 34.4301
rwrist -5.69517
rhand -6.78859 -54.23
rfingers 7.12502
rthumb 19.0741 -443.315
lclavicle -5.76476e-015 -4.29375e-014
lhumerus -25.8711 2.99928 79.7558
lradius 26.6955
lwrist -1.69008
lhand -24.854 -9.09583
lfingers 7.12502
lthumb 1.65255 20.8775
rfemur -47.8733 -2.72718 16.8777
rtibia 58.8953
rfoot -16.1481 -13.6141
rtoes -38.3616
lfemur -24.13 -8.1321 -24.2027
ltibia 11.4901
lfoot -8.10545 -2.81444
ltoes -40.1982
828
root 11.554 16.0715 -15.6679 -23.5685 -85.4112 46.9916
lowerback -24.4042 -2.95228 -7.31696
upperback 1.40828 -1.55446 -1.93901
thorax 15.6059 -1.22733 1.34424
lowerneck -21.3737 1.52655 -0.680757
upperneck 52.0397 0.973731 -5.91867
head 33.6261 -1.27407 -4.84158
rclavicle -1.8487e-014 -6.04305e-014
rhumerus -39.243 -14.803 -76.5504
rradius 34.3072
rwrist -5.53484
rhand -6.24601 -54.203
rfingers 7.12502
rthumb 19.5958 -443.235
lclavicle -1.8487e-014 -6.04305e-014
lhumerus -25.4719 1.75044 79.9853
lradius 27.2941
lwrist -1.46291
lhand -24.9315 -8.93706
lfingers 7.12502
lthumb 1.57776 21.0368
rfemur -48.2702 -2.33042 16.8768
rtibia 57.1274
rfoot -16.1265 -14.414
rtoes -39.9081
lfemur -23.3624 -8.17972 -23.9319
ltibia 11.2799
lfoot -8.39951 -3.06441
ltoes -39.4912
829
root 11.4304 16.065 -15.6657 -18.7496 -85.2757 42.0402
lowerback -24.4607 -3.06955 -7.16691
upperback 1.44428 -1.76558 -1.78536
thorax 15.7002 -1.31787 1.35493
lowerneck -21.3662 1.55899 -0.323976
upperneck 52.0404 0.899667 -6.10541
head 33.67 -1.21719 -5.09512
rclavicle -1.43125e-014 -2.54444e-014
rhumerus -39.6109 -15.4169 -76.1122
rradius 34.0601
rwrist -4.9641
rhand -5.67745 -54.1251
rfingers 7.12502
rthumb 20.1424 -443.101
lclavicle -1.43125e-014 -2.54444e-014
lhumerus -25.0282 0.21122 80.4242
lradius 27.7636
lwrist -0.447796
lhand -24.7897 -9.59874
lfingers 7.12502
lthumb 1.71469 20.3741
rfemur -48.6458 -2.08852 16.7531
rtibia 55.2441
rfoot -16.446 -14.7117
rtoes -39.5977
lfemur -22.6923 -7.88121 -23.7604
ltibia 11.1909
lfoot -8.65745 -3.79227
ltoes -37.0489
830
root 11.321 16.0596 -15.6655 -14.6013 -84.9837 37.9379
lowerback -24.4713 -3.21911 -7.12145
upperback 1.40849 -2.00052 -1.6239
thorax 15.6873 -1.42572 1.42904
lowerneck -21.4118 1.57638 -0.246608
upperneck 52.0815 0.844938 -6.10291
head 33.8648 -1.20613 -5.15868
rclavicle -1.59028e-014 1.35174e-014
rhumerus -39.9405 -16.1647 -75.4909
rradius 33.6986
rwrist -4.1688
rhand -5.36569 -53.8764
rfingers 7.12502
rthumb 20.442 -442.82
lclavicle -1.59028e-014 1.35174e-014
lhumerus -24.4386 -0.721092 80.7571
lradius 28.0066
lwrist -0.228606
lhand -24.5522 -10.2784
lfingers 7.12502
lthumb 1.94406 19.6925
rfemur -49.2065 -1.9091 16.4767
rtibia 53.2779
rfoot -17.3564 -15.0713
rtoes -36.5449
lfemur -22.3485 -8.00033 -23.5737
ltibia 11.2557
lfoot -8.74725 -4.29536
ltoes -33.7335
831
root 11.2023 16.058 -15.6595 -11.8233 -84.9155 34.9463
lowerback -24.3657 -3.21969 -6.90523
upperback 1.44909 -2.09234 -1.45941
thorax 15.6804 -1.45665 1.46622
lowerneck -21.4217 1.62249 0.099853
upperneck 52.0384 0.832204 -6.26864
head 33.7941 -1.13294 -5.35306
rclavicle -6.16232e-015 -4.6118e-014
rhumerus -40.3063 -16.8291 -74.7719
rradius 33.4414
rwrist -3.78711
rhand -5.1146 -53.7743
rfingers 7.12502
rthumb 20.6833 -442.692
lclavicle -6.16232e-015 -4.6118e-014
lhumerus -23.7386 -0.834597 80.9331
lradius 28.0459
lwrist -1.52567
lhand -24.1595 -10.6427
lfingers 7.12502
lthumb 2.32334 19.3244
rfemur -49.2968 -1.49862 16.2714
rtibia 51.0141
rfoot -18.1189 -15.8632
rtoes -34.6089
lfemur -21.5321 -8.47868 -23.3063
ltibia 11.0336
lfoot -9.04697 -3.93487
ltoes -33.925
832
root 11.0644 16.042 -15.651 -10.5271 -84.6583 33.5359
lowerback -24.6173 -3.37098 -6.85748
upperback 1.51167 -2.29755 -1.33405
thorax 15.9246 -1.55448 1.4944
lowerneck -21.4907 1.74711 0.558363
upperneck 51.9473 0.939827 -6.48146
head 33.7067 -1.00136 -5.56455
rclavicle -1.03368e-014 -8.74653e-015
rhumerus -40.6215 -17.0288 -74.2982
rradius 33.2788
rwrist -3.75042
rhand -5.17747 -53.9802
rfingers 7.12502
rthumb 20.6229 -442.905
lclavicle -1.03368e-014 -8.74653e-015
lhumerus -23.2437 -1.16824 81.1569
lradius 28.3339
lwrist -2.14337
lhand -24.0807 -10.769
lfingers 7.12502
lthumb 2.39941 19.1973
rfemur -49.3474 -1.55568 15.9956
rtibia 48.6007
rfoot -18.2685 -16.4502
rtoes -34.7885
lfemur -20.6384 -8.95365 -23.3956
ltibia 10.7073
lfoot -9.41009 -3.82477
ltoes -33.8264
